<?xml version="1.0" standalone="no"?>
<!DOCTYPE svg PUBLIC "-//W3C//DTD SVG 20010904//EN"
 "http://www.w3.org/TR/2001/REC-SVG-20010904/DTD/svg10.dtd">
<svg version="1.0" xmlns="http://www.w3.org/2000/svg"
 width="200.000000pt" height="200.000000pt" viewBox="0 0 200.000000 200.000000"
 preserveAspectRatio="xMidYMid meet">

<g transform="translate(0.000000,200.000000) scale(0.100000,-0.100000)"
fill="#000000" stroke="none">
<path d="M0 1000 l0 -1000 1000 0 1000 0 0 1000 0 1000 -1000 0 -1000 0 0
-1000z m958 708 c21 -6 37 -19 43 -35 19 -51 17 -53 -92 -53 -115 0 -139 8
-139 50 0 49 24 63 94 55 34 -3 76 -11 94 -17z m364 -65 c25 -22 23 -59 -4
-77 -17 -12 -48 -16 -120 -16 l-98 0 0 28 c0 39 31 65 88 73 83 11 115 10 134
-8z m-312 -173 c0 -100 -2 -120 -15 -120 -9 0 -15 9 -15 24 0 13 -6 26 -12 29
-10 3 -10 9 0 26 6 11 12 52 12 91 0 56 3 70 15 70 13 0 15 -20 15 -120z
m-201 64 c60 -7 91 -31 91 -69 l0 -25 -104 0 c-82 0 -108 3 -120 16 -38 37 0
100 54 90 14 -3 49 -8 79 -12z m321 -94 c0 -73 -3 -90 -15 -90 -12 0 -15 17
-15 90 0 73 3 90 15 90 12 0 15 -17 15 -90z m-230 -60 c0 -20 -5 -30 -15 -30
-10 0 -15 10 -15 30 0 20 5 30 15 30 10 0 15 -10 15 -30z m215 -70 c-4 -6 -63
-10 -146 -10 -86 0 -139 4 -139 10 0 6 55 10 146 10 94 0 143 -4 139 -10z
m103 -72 c8 -8 12 -52 12 -130 l0 -118 -30 0 -29 0 -3 73 -3 72 -54 3 c-40 2
-52 0 -49 -10 3 -7 23 -14 46 -16 l42 -3 0 -60 0 -59 -150 0 -150 0 0 60 0 59
87 3 c59 2 88 7 91 16 3 10 -18 12 -95 10 l-98 -3 -3 -72 -3 -73 -29 0 -30 0
0 123 c0 68 3 127 7 130 12 13 428 8 441 -5z m-590 -505 c2 -94 5 -113 18
-113 9 0 14 -7 12 -17 -2 -13 -13 -18 -33 -18 l-30 0 -3 111 c-2 105 -4 112
-24 117 -18 5 -19 8 -8 22 8 9 24 15 39 13 l26 -3 3 -112z m163 107 c10 -6 19
-18 19 -26 0 -12 -7 -14 -30 -9 -27 6 -30 4 -30 -19 0 -17 6 -26 20 -28 29 -4
30 -22 3 -26 -21 -3 -23 -9 -23 -57 0 -46 3 -53 22 -58 18 -5 19 -8 8 -21 -7
-9 -25 -16 -41 -16 l-29 0 0 75 c0 43 -4 75 -10 75 -5 0 -10 7 -10 15 0 8 5
15 10 15 6 0 10 13 10 29 0 20 8 35 22 45 26 19 33 19 59 6z m637 -102 c2 -87
6 -108 17 -108 22 0 18 -28 -6 -40 -14 -8 -24 -8 -32 -1 -8 6 -18 6 -27 1 -45
-29 -112 1 -126 55 -17 69 48 140 107 118 28 -11 29 -10 29 18 0 19 -5 29 -14
29 -8 0 -18 5 -21 10 -11 18 6 31 38 28 l32 -3 3 -107z m230 0 c2 -87 6 -108
17 -108 22 0 18 -28 -6 -40 -14 -8 -24 -8 -32 -1 -8 6 -18 6 -27 1 -29 -18
-80 -11 -105 15 -29 28 -34 88 -10 121 22 32 71 49 100 36 24 -11 25 -10 25
18 0 19 -5 30 -14 30 -8 0 -18 5 -21 10 -11 18 6 31 38 28 l32 -3 3 -107z
m-1374 72 c14 -5 26 -17 26 -26 0 -13 -8 -15 -50 -9 -44 6 -52 4 -75 -19 -52
-52 -16 -136 60 -136 l35 0 0 50 c0 43 3 50 20 50 18 0 20 -7 20 -54 0 -79 -5
-86 -57 -86 -83 0 -143 51 -143 120 0 42 30 88 68 104 44 18 62 19 96 6z m681
-6 c24 -10 37 -51 24 -75 -8 -16 -7 -25 5 -38 22 -24 20 -67 -4 -91 -17 -17
-31 -20 -83 -18 l-62 3 -3 113 -3 112 55 0 c30 0 62 -3 71 -6z m-448 -66 c30
-28 38 -70 19 -107 -31 -60 -99 -70 -147 -22 -85 86 39 212 128 129z m585 1
c-14 -109 -14 -107 5 -117 35 -19 68 7 71 56 2 33 0 42 -12 42 -24 0 -19 30 7
39 12 5 25 6 29 2 3 -3 8 -44 10 -91 l3 -85 -62 -2 c-83 -4 -106 16 -101 88 1
27 0 49 -4 49 -18 0 -6 31 15 40 31 12 42 7 39 -21z m665 -18 c-27 -46 -20
-96 13 -101 52 -8 60 -2 60 46 0 33 -5 51 -17 60 -21 15 -10 31 27 36 l25 3 3
-107 c2 -99 1 -108 -20 -127 -38 -37 -138 -19 -138 25 0 16 21 19 37 3 15 -15
77 -7 81 11 2 12 -6 15 -37 12 -33 -3 -45 1 -67 23 -23 23 -26 33 -22 70 3 24
1 48 -4 53 -18 18 47 48 67 30 6 -5 3 -19 -8 -37z"/>
<path d="M846 1671 c-10 -11 -13 -22 -8 -25 5 -3 17 3 26 13 10 11 13 22 8 25
-5 3 -17 -3 -26 -13z"/>
<path d="M912 1678 c-7 -7 -12 -19 -12 -27 0 -11 4 -10 20 4 21 19 26 35 12
35 -4 0 -13 -5 -20 -12z"/>
<path d="M1165 1620 c-10 -17 22 -47 35 -34 7 7 4 16 -9 28 -14 12 -21 14 -26
6z"/>
<path d="M1230 1618 c0 -18 27 -44 37 -34 4 4 -3 16 -15 29 -18 17 -22 18 -22
5z"/>
<path d="M726 1491 c-10 -11 -13 -22 -8 -25 5 -3 17 3 26 13 10 11 13 22 8 25
-5 3 -17 -3 -26 -13z"/>
<path d="M792 1498 c-14 -14 -16 -38 -4 -38 12 0 32 23 32 37 0 16 -12 17 -28
1z"/>
<path d="M905 1070 c-3 -5 0 -13 8 -16 23 -9 177 0 180 11 3 14 -179 19 -188
5z"/>
<path d="M1307 712 c-20 -22 -22 -63 -5 -80 7 -7 24 -12 38 -12 14 0 31 5 38
12 18 18 14 63 -6 81 -24 22 -45 21 -65 -1z"/>
<path d="M1536 714 c-19 -18 -21 -65 -4 -82 7 -7 24 -12 38 -12 33 0 50 17 50
50 0 49 -52 76 -84 44z"/>
<path d="M880 750 c0 -27 3 -30 34 -30 22 0 36 6 40 16 9 24 -12 44 -45 44
-26 0 -29 -4 -29 -30z"/>
<path d="M880 650 c0 -30 1 -31 43 -28 37 3 42 6 42 28 0 22 -5 25 -42 28 -42
3 -43 2 -43 -28z"/>
<path d="M417 712 c-20 -22 -22 -63 -5 -80 13 -13 57 -16 75 -4 24 15 26 59 4
81 -26 26 -53 27 -74 3z"/>
</g>
</svg>
